<svg width="640" height="480" xmlns="http://www.w3.org/2000/svg" xmlns:svg="http://www.w3.org/2000/svg">
 <!-- Created with SVG-edit - http://svg-edit.googlecode.com/ -->
 <g>
  <title>Layer 1</title>
  <ellipse stroke="#ff007f" ry="110.5" rx="110.5" id="svg_3" cy="240.5" cx="325.5" stroke-width="2" fill="#ffffaa"/>
  <rect id="svg_4" height="18" width="56" y="232.25" x="126" stroke-linecap="null" stroke-linejoin="null" stroke-dasharray="null" stroke-width="2" stroke="#ff007f" fill="#ffffaa"/>
  <rect transform="rotate(45 202,120.5) " stroke="#ff007f" id="svg_5" height="18" width="56" y="111.5" x="174" stroke-linecap="null" stroke-linejoin="null" stroke-dasharray="null" stroke-width="2" fill="#ffffaa"/>
  <rect transform="rotate(89.6 326,45) " id="svg_6" height="18" width="56" y="36.5" x="298" stroke-linecap="null" stroke-linejoin="null" stroke-dasharray="null" stroke-width="2" stroke="#ff007f" fill="#ffffaa"/>
  <rect transform="rotate(135 452,125.5) " id="svg_7" height="18" width="56" y="116.5" x="424" stroke-linecap="null" stroke-linejoin="null" stroke-dasharray="null" stroke-width="2" stroke="#ff007f" fill="#ffffaa"/>
  <rect id="svg_8" height="18" width="56" y="232.25" x="469" stroke-linecap="null" stroke-linejoin="null" stroke-dasharray="null" stroke-width="2" stroke="#ff007f" fill="#ffffaa"/>
  <rect transform="rotate(45 453,356.5) " id="svg_9" height="18" width="56" y="347.5" x="425" stroke-linecap="null" stroke-linejoin="null" stroke-dasharray="null" stroke-width="2" stroke="#ff007f" fill="#ffffaa"/>
  <rect transform="rotate(90 326,410.5) " id="svg_10" height="18" width="56" y="401.5" x="298" stroke-linecap="null" stroke-linejoin="null" stroke-dasharray="null" stroke-width="2" stroke="#ff007f" fill="#ffffaa"/>
  <rect transform="rotate(135 199,356.5) " id="svg_11" height="18" width="56" y="347.5" x="171" stroke-linecap="null" stroke-linejoin="null" stroke-dasharray="null" stroke-width="2" stroke="#ff007f" fill="#ffffaa"/>
  <path id="svg_14" d="m296,208c0,0 49,-43 49,-43c0,0 -25,55 -24,55c1,0 35,-5 35,-5c0,0 -56,90 -56,90c0,0 11,-100 11,-100c0,0 -15,3 -15,3z" stroke-linecap="null" stroke-linejoin="null" stroke-dasharray="null" stroke-width="2" stroke="#ff007f" fill="#0000ff"/>
 </g>
</svg>
